<?xml version="1.0" encoding="utf-8"?>
<!-- Generator: Adobe Illustrator 24.1.0, SVG Export Plug-In . SVG Version: 6.00 Build 0)  -->
<svg version="1.1" id="Ebene_1" xmlns="http://www.w3.org/2000/svg" xmlns:xlink="http://www.w3.org/1999/xlink" x="0px" y="0px"
	 viewBox="0 0 101.3 97" style="enable-background:new 0 0 101.3 97;" xml:space="preserve">
<style type="text/css">
	.st0{clip-path:url(#SVGID_2_);fill:#DB4615;}
	.st1{clip-path:url(#SVGID_2_);fill:#FFFFFF;}
</style>
<g>
	<defs>
		<rect id="SVGID_1_" x="9.4" y="5.8" width="82.5" height="82.5"/>
	</defs>
	<clipPath id="SVGID_2_">
		<use xlink:href="#SVGID_1_"  style="overflow:visible;"/>
	</clipPath>
	<path class="st0" d="M50.7,88.3c22.8,0,41.2-18.5,41.2-41.2S73.4,5.8,50.7,5.8S9.4,24.2,9.4,47S27.9,88.3,50.7,88.3"/>
	<path class="st1" d="M31,38.6h-2.6c-0.9,0-1.4,0.5-1.4,1.3v13.1c0,0.9,0.5,1.4,1.4,1.4H31c0.9,0,1.3-0.5,1.3-1.4V39.9
		C32.4,39,31.9,38.6,31,38.6"/>
	<path class="st1" d="M41.6,28H39c-0.9,0-1.4,0.5-1.4,1.3v16.1c0,0.9,0.5,1.3,1.4,1.3h2.6c0.9,0,1.3-0.4,1.3-1.3V29.3
		C42.9,28.4,42.5,28,41.6,28"/>
	<path class="st1" d="M49.5,18.4c-0.9,0-1.3,0.5-1.3,1.3v38.5c0,0.9,0.4,1.3,1.3,1.3h2.6c0.9,0,1.4-0.4,1.4-1.3V19.7
		c0-0.9-0.5-1.3-1.4-1.3H49.5z"/>
	<path class="st1" d="M62.6,47.1H60c-0.9,0-1.4,0.5-1.4,1.3v25.1c0,0.9,0.5,1.4,1.4,1.4h2.6c0.9,0,1.3-0.4,1.3-1.4V48.4
		C64,47.5,63.5,47.1,62.6,47.1"/>
	<path class="st1" d="M73.1,47.1h-2.6c-0.9,0-1.4,0.5-1.4,1.3v13.1c0,0.9,0.5,1.4,1.4,1.4h2.6c0.9,0,1.3-0.5,1.3-1.4V48.4
		C74.5,47.5,74,47.1,73.1,47.1"/>
	<path class="st1" d="M83.7,47.1h-2.6c-0.9,0-1.4,0.5-1.4,1.3v4.6c0,0.9,0.5,1.3,1.4,1.3h2.6c0.9,0,1.3-0.4,1.3-1.3v-4.6
		C85,47.5,84.6,47.1,83.7,47.1"/>
	<path class="st1" d="M20.5,47.1h-2.6c-0.9,0-1.4,0.5-1.4,1.3v4.6c0,0.9,0.5,1.3,1.4,1.3h2.6c0.9,0,1.3-0.4,1.3-1.3v-4.6
		C21.9,47.5,21.4,47.1,20.5,47.1"/>
</g>
</svg>
